Patient4_TMGait_0pt4_03_right_33_EMG.mot
version=1
nRows=16
nColumns=33
inDegrees=no
endheader
time	1LAddLong	2LGlutMax	3LGlutMed	4LIliopsoas	5LSemiMemb	6LBicFemLong	7LRecFem	8LVastMed	9LVastLat	10LGasMed	11LTibAnt	12lTibPost	13LPeroneusLong	14LSol	15LExtDigLong	16LFlexDigLong	17RAddLong	18RGlutMax	19RGlutMed	20RIliopsoas	21RSemiMemb	22RBicFemLong	23RRecFem	24RVastMed	25RVastLat	26RGasMed	27RTibAnt	28RTibPost	29RPeroneusLong	30RSol	31RExtDigLong	32RFlexDigLong
43.375	-0.011749	-0.096588	-0.22446	0.001373	0.003815	-0.019226	-0.052185	-0.031281	0.1239	0.028076	0.00351	-0.019836	-0.10849	0.10269	-0.010834	-0.39169	0.043945	-0.23865	0.19791	-0.026703	0.070801	-0.46936	0.23926	-0.0737	-0.054016	0.20279	-0.026093	0.001373	1.4162	0.26886	-0.005188	-0.004578
43.376	-0.007172	-0.11871	-0.21957	0.005798	0.000153	-0.021362	-0.066376	0.002136	0.12756	0.018616	0.014648	-0.027008	-0.10071	0.2861	-0.04425	0.25345	-0.024414	-0.31632	0.3331	0.003357	0.25421	-0.3009	0.20081	-0.035706	-0.078278	0.061646	0.083008	0.052185	0.14816	0.29083	-0.011139	0.001526
43.377	-0.010071	-0.11581	-0.19898	0.027313	-0.001373	-0.033722	-0.059967	-0.004578	0.11551	0.053558	0.001068	-0.015717	-0.024719	0.39764	-0.015259	0.17364	0.008545	-0.44525	-0.52933	-0.005341	-0.14938	-0.2301	0.14145	-0.014191	-0.094757	0.07019	0.22995	0.001526	-0.40161	0.25574	-0.002899	-0.006866
43.378	-0.00946	-0.1004	-0.1947	-0.006714	0.000305	-0.044098	0.015869	0.009308	0.11749	0.071106	-0.007172	-0.008392	0.14297	0.38803	-0.00946	0.065613	-0.014496	-0.48263	-0.45487	-0.059204	-0.52582	-0.16968	0.20004	-0.020599	-0.12451	0.069122	0.19165	-0.01358	0.088654	0.097198	-0.00412	0.00061
43.379	-0.010223	-0.1004	-0.19073	0.002747	0.005646	-0.019989	0.091858	0.005035	0.11322	0.032501	-0.012817	-0.022278	0.099182	0.065613	0.019684	0.040131	-0.027618	-0.56076	-0.64972	-0.032959	-0.69595	-0.22766	0.25116	-0.003052	-0.1236	0.074158	-0.095367	-0.015717	1.7372	0.062561	-0.003967	0.006409
43.38	-0.005798	-0.081024	-0.17716	0.020447	-0.010223	-0.02243	0.14404	0.003357	0.12573	0.013428	-0.014343	-0.008087	0.052948	0.040894	0.012512	0.026398	-0.010834	-0.70618	-0.45883	-0.045776	0.1326	-0.38315	0.25742	-0.001221	-0.14023	0.069885	0.007019	0.001678	-0.36224	0.037231	-0.001831	0.001678
43.381	-0.003357	-0.12177	-0.16312	0.018921	0.006714	-0.018311	0.13107	0.00351	0.10651	0.01358	-0.006409	-0.016937	0.007172	-0.12543	0.028992	-0.10208	-0.036316	-0.85648	-0.82504	-0.040131	0.62317	-0.29251	0.25726	0.028687	-0.085907	0.040436	0.012665	-0.036316	-0.74844	0.012817	-0.00412	0.009918
43.382	-0.004425	-0.089264	-0.1561	0.023956	-0.00885	-0.023956	0.11795	0.005035	0.11169	0.00946	0.013123	-0.01297	-0.064087	-0.41412	0.029602	-0.17364	-0.015564	-0.97046	-1.3818	-0.09491	0.4332	0.037079	0.21255	0.060272	-0.084686	0.007629	0.037079	-0.043793	-0.40085	0.033417	-0.004883	0.00885
43.383	-0.002747	-0.10437	-0.14725	0.014648	0.001373	-0.028229	0.10834	0.005188	0.1178	0.009155	0.004272	-0.016937	-0.05249	-0.39703	0.011902	-0.112	-0.014954	-0.98434	-1.2711	-0.091705	0.26855	0.15305	0.2153	0.06012	-0.13428	0.008545	-0.028839	0.021667	-0.004425	-0.2121	-0.003815	0.007019
43.384	-0.00473	-0.10422	-0.16846	0.014191	-0.009003	-0.044403	0.067139	0.002899	0.10742	0.003662	0.000153	-0.059052	-0.053253	-0.16937	-0.002899	0.12619	-0.075226	-1.0242	-0.60715	0.008392	0.19501	0.40314	0.12024	0.2684	0.044098	0.004425	0.024872	0.0354	-0.33188	-0.32913	-0.004425	0.009308
43.385	0.005035	-0.12848	-0.1648	-0.006714	0.005341	-0.025024	-0.020142	0.006104	0.1091	0.022888	0.004272	-0.093231	-0.037842	0.005951	-0.001221	-0.026398	-0.092621	-1.1313	-0.53024	0.003204	0.062408	0.35996	0.004425	0.34927	0.5043	0.011292	0.003204	0.040741	0.02594	-0.29434	-0.005188	0.000305
43.386	0.008087	-0.11993	-0.15167	-0.006104	0.00885	-0.020294	-0.1265	0.001831	0.098114	0.027313	0.005951	-0.004425	-0.011444	0.078735	-0.006866	-0.055542	-0.066376	-1.0785	0.062408	0.1059	-0.24796	0.13123	0.010681	0.27191	0.61706	0.000763	-0.000153	-0.040588	0.5455	-0.22003	-0.009918	0.002441
43.387	0.006104	-0.087585	-0.12207	-0.007935	0.001984	-0.035553	-0.20279	0.002899	0.080719	0.006256	-0.000458	0.012817	-0.001373	0.089264	0.002899	-0.044098	-0.032043	-1.031	-0.48752	0.36102	-0.015717	-0.088806	0.057983	0.10864	0.52429	-0.009918	-0.26337	-0.046234	1.5189	-0.1152	-0.002899	0.005341
43.388	0.007324	-0.11231	-0.11719	-0.009766	0.015564	-0.039215	-0.13062	0.006409	0.084534	-0.037231	0.001526	0.04776	0.096588	0.10239	0.007629	-0.050507	-0.007477	-1.1055	-0.39032	0.41092	-0.016632	-0.21942	0.054169	-0.003204	0.32944	-0.023956	-0.016327	-0.038147	0.63675	0.13412	-0.005188	0.000763
43.389	0.002289	-0.085754	-0.086975	0.011139	0.001678	-0.032196	0.022125	0.004425	0.083618	-0.034637	0.009308	0.063629	0.10407	0.11063	0.010986	-0.049286	0.007172	-1.1195	-0.47211	0.23041	-0.063934	-0.37109	0.073395	-0.14923	0.10315	-0.022888	0.033569	0.010223	-0.35446	0.080566	-0.007782	0.010681
43.39	0.009003	-0.05661	-0.057373	-0.006561	-0.020447	-0.0177	0.084686	0.006409	0.08606	0.06073	0.004272	-0.063782	0.09613	0.11841	-0.001526	-0.057526	0.022583	-1.1461	-0.50797	0.058594	-0.083008	-0.42145	0.048676	-0.14999	-0.17731	-0.015259	0.085144	0.000916	-1.5842	0.047302	-0.003967	-0.011444
